<?xml version="1.0" encoding="UTF-8"?>
<svg id="Ebene_1" xmlns="http://www.w3.org/2000/svg" version="1.1" viewBox="0 0 524.5 291.2">
  <!-- Generator: Adobe Illustrator 30.0.0, SVG Export Plug-In . SVG Version: 2.1.1 Build 123)  -->
  <path d="M140.9,127.8c0,3.5-2.9,6.4-6.4,6.4s-6.4-2.9-6.4-6.4,2.9-6.4,6.4-6.4,6.4,2.9,6.4,6.4h0Z"/>
  <path d="M140.9,145.4c0,3.5-2.9,6.4-6.4,6.4s-6.4-2.9-6.4-6.4,2.9-6.4,6.4-6.4,6.4,2.9,6.4,6.4h0Z"/>
  <path d="M140.9,162.7c0,3.5-2.9,6.4-6.4,6.4s-6.4-2.9-6.4-6.4,2.9-6.4,6.4-6.4,6.4,2.9,6.4,6.4h0Z"/>
  <path d="M141.5,190.3c-24.1-1-43.3-20.8-43.3-45s19.2-44.1,43.3-45V2C63.2,2.9,0,66.7,0,145.2s63.2,142.3,141.5,143.3v-98.2h0Z"/>
  <polygon points="512.7 215 165.5 215 165.5 207.3 512.7 207.3 512.7 215 512.7 215"/>
  <polygon points="162.5 2.3 233.5 2.3 233.5 21 186.4 21 186.4 38.4 230.4 38.4 230.4 56.6 186.4 56.6 186.4 79.5 237.7 79.5 237.7 98.4 162.5 98.4 162.5 2.3 162.5 2.3"/>
  <path d="M303.8,2.3l35.4,96h-25.6l-4.8-15.4h-35.4l-4.8,15.4h-25.6L278.8,2.3h25ZM290.9,25.2c-1.2,4.9-2.6,9.9-3.9,14.8-2,7.2-5.7,18.5-7.9,25.7h24.4l-12.5-40.5h0Z"/>
  <path d="M359,69.5c2.4,2.7,4.5,4.9,9.3,7.5,6.4,3.4,12.9,4.6,18.5,4.6,9.5,0,17.7-4.5,17.7-11.2s-9.7-8.8-16.7-9.8c-5.3-.7-10.6-1.4-15.8-2.4-5.8-1.2-25.8-5.4-25.8-26.1S368.1,0,384.7,0s34.1,10.7,42.4,18.2l-17.7,12.7c-3-3-5.7-5.6-9.5-7.8-3.4-1.9-9.5-4.2-15.6-4.2-9.5,0-14.3,5.4-14.3,10.1,0,7.3,8.2,8.4,12.2,9,10.2,1.2,23.9,3.8,29.4,5.7,11,4.1,16.6,12.7,16.6,23.5s-2.6,14.6-7.6,20.4c-8.7,10.1-22.6,12.9-36.1,12.9-27.1,0-37.8-12.5-43.8-19.5l18.2-11.6h0Z"/>
  <path d="M428.5,2.3h27.6l20.7,32.9c1.2-2.7,1.5-3.3,3.9-7.2l16.5-25.7h27.3l-36.3,50.6v45.4h-23.7v-44.8L428.5,2.3h0Z"/>
  <polygon points="219.3 128.5 198 128.5 198 192.6 183.5 192.6 183.5 128.5 162.6 128.5 162.6 115.3 219.3 115.3 219.3 128.5 219.3 128.5"/>
  <polygon points="241.9 115.3 241.9 192.6 227.7 192.6 227.7 115.3 241.9 115.3 241.9 115.3"/>
  <path d="M323.3,171c-1,2.5-2.8,7-6.7,11.6-5.5,6.3-14.1,11.9-26.7,11.9-20.5,0-36.1-15-36.1-40.8s17-40.4,36.7-40.4,29.8,18.5,31.5,23.9l-14.4,3.8c-.2-1.4-.9-4.7-2.8-7.7-1.6-2.4-5.9-6.8-13.9-6.8-12.6,0-21.3,10.4-21.3,26.9s9.3,27.4,21.5,27.4,11.6-3.5,14.8-7.6c2.5-3.4,3.5-6.2,4.1-8l13.6,5.7h0Z"/>
  <polygon points="369.8 144.4 396.8 192.6 380.3 192.6 359.7 156.3 347.1 170.7 347.1 192.6 332.8 192.6 332.8 115.3 347.1 115.3 347.1 150.8 378.1 115.3 395.1 115.3 369.8 144.4 369.8 144.4"/>
  <polygon points="418.4 128.2 418.4 146.4 455.7 146.4 455.7 158.9 418.4 158.9 418.4 179.6 461.9 179.6 461.9 192.6 404.2 192.6 404.2 115.3 459.2 115.3 459.2 128.2 418.4 128.2 418.4 128.2"/>
  <polygon points="522.7 128.5 501.3 128.5 501.3 192.6 486.9 192.6 486.9 128.5 466 128.5 466 115.3 522.7 115.3 522.7 128.5 522.7 128.5"/>
  <path d="M188.5,261.3c-8.9-1.8-21.9-4.8-21.9-17.5s3.3-9.9,5.7-11.9c5.5-4.7,12.2-5.2,16.4-5.2s11,.4,16.5,4.5c6.1,4.4,7.3,10.7,7.9,14.4l-8.3.5c0-1.9-.3-6.8-5-10.2-3.1-2.3-7.1-3-11-3-7.4,0-13.9,3-13.9,9.7s6.8,8.4,12.1,9.6l6.8,1.7c4.7,1.1,7.2,1.7,9.7,2.7,9.2,3.8,10.6,11.2,10.6,15.3s-2.3,11.1-7.8,14.9c-5.9,4-13,4.4-16.7,4.4-5.6,0-24.6-.9-26-21.2l8.8-1.1c0,2.3.3,7.7,5,11.8,3.5,3,8.1,4.1,12.6,4.1,8.7,0,15.3-4.3,15.3-12.3s-5.7-9.1-11.7-10.3l-5.1-1h0Z"/>
  <polygon points="232.1 261.6 232.1 282.5 267.6 282.5 267.6 289.6 224.2 289.6 224.2 228.2 266.6 228.2 266.6 235.4 232.1 235.4 232.1 254.4 262.1 254.4 262.1 261.6 232.1 261.6 232.1 261.6"/>
  <path d="M282.8,263.5v26.1h-8v-61.5h22.8c8.5,0,13.6,0,18.4,3.7,4.5,3.4,6.4,8.5,6.4,14.2,0,14.4-11.6,16.4-14.5,16.9l17.2,26.6h-9.7l-16.7-26.1h-15.8ZM282.8,256.7h16.3c2.6,0,5,0,7.5-.6,5.7-1.4,7.7-5.5,7.7-9.9s-.2-5.7-3.7-8.6c-3.2-2.7-7.2-2.6-11.9-2.6h-15.8v21.8h0Z"/>
  <polygon points="367.1 228.2 375.8 228.2 354.1 289.6 345.9 289.6 325.2 228.2 333.9 228.2 350.2 279.5 367.1 228.2 367.1 228.2"/>
  <polygon points="390.2 228.2 390.2 289.6 382 289.6 382 228.2 390.2 228.2 390.2 228.2"/>
  <path d="M459.9,267.4c-2.6,11.7-12.4,23.9-30.3,23.9s-30-15.2-30-32.3,10-32.3,31.2-32.3,26.5,14.7,27.9,18.8l-8.3,1.7c-.8-2.3-1.4-4.3-3.7-6.9-3-3.7-8.4-7.1-16.1-7.1s-12.9,2.6-16.9,7.7c-3.9,4.9-5.1,11.3-5.1,17.6,0,15.2,7.7,25.9,21.9,25.9s18.5-5.1,20.4-18.1l9,1h0Z"/>
  <polygon points="475.1 261.6 475.1 282.5 510.6 282.5 510.6 289.6 467.2 289.6 467.2 228.2 509.5 228.2 509.5 235.4 475.1 235.4 475.1 254.4 505 254.4 505 261.6 475.1 261.6 475.1 261.6"/>
</svg>