<?xml version="1.0" encoding="UTF-8"?>
<svg id="Ebene_1" xmlns="http://www.w3.org/2000/svg" version="1.1" viewBox="0 0 134.1 132.2">
  <!-- Generator: Adobe Illustrator 30.2.1, SVG Export Plug-In . SVG Version: 2.1.1 Build 1)  -->
  <path d="M38.8,117.3v11.2H5.3s-5.1.8-5.3-4.6L.2,16.5s.6-4.8,5.5-4.2h15.8l1.1-7.6S23.2,0,30.6.2c0,0,6.1-1.7,8.6,3.8v7.8h37.9v-6.7s2.1-4.8,4.4-4.4l8,.2s2.7.4,4,3.2v7l19,1.1s3.8.8,4.4,5.7v23.6H9.9v75.7s29.4.7,28.9.2Z"/>
  <g>
    <path d="M83.8,57.6c5.9,0,11.5,1.4,16.4,4,.5.3,1.1.4,1.7.4h0c3.8,0,5.1-5.1,1.8-6.9-6-3.2-13-5-20.4-4.8-21.8.5-39.4,18.3-39.9,40.1,0,.3,0,.6,0,.8h-8.9l12.7,21.9,12.7-21.9h-9.2c0-.2,0-.4,0-.6.3-18.1,15.1-32.8,33.1-33Z"/>
    <path d="M121.4,69l-5.7,9.9h0s0,0,0,0l-6.9,11.9h9.2c0,0,0,.2,0,.3,0,18.6-15.5,33.9-34.1,33.6-6.1,0-11.9-1.8-16.8-4.8-.6-.3-1.2-.5-1.8-.5h0c-3.7,0-5.1,4.9-1.9,6.8,6.3,3.8,13.7,5.9,21.5,5.8,21.9-.3,39.9-18,40.4-39.9,0-.4,0-.9,0-1.3h8.9l-12.7-21.9Z"/>
  </g>
</svg>