<?xml version="1.0" encoding="utf-8"?>
<!-- Generator: Adobe Illustrator 23.1.1, SVG Export Plug-In . SVG Version: 6.00 Build 0)  -->
<svg version="1.1" id="EVE_x5F_4c_x5F_neg" xmlns="http://www.w3.org/2000/svg" xmlns:xlink="http://www.w3.org/1999/xlink" x="0px"
	 y="0px" viewBox="0 0 1000 379.1" style="enable-background:new 0 0 1000 379.1;" xml:space="preserve">
<g>
	<g>
		<path d="M70.6,217c4.7-10.3,11.4-18.4,20-24.3c8.7-5.9,18.8-8.9,30.3-8.9c17.3,0,30.9,6.3,40.6,19c9.7,12.7,14.6,29.2,14.6,49.5v9
			H95.6c0.7,9.2,3.7,16.7,9,22.6c5.3,5.8,12.6,8.8,22,8.8c5,0,10-1.1,15-3.3c5-2.2,9.3-5.3,12.9-9.2l14.6,19.1
			c-5.7,6.2-12.5,10.9-20.6,14.2c-8.1,3.3-16.5,4.9-25.3,4.9c-11.9,0-22.3-2.8-31.3-8.4c-9-5.6-16-13.5-21-23.8
			c-5-10.3-7.4-22-7.4-35.3C63.5,238.6,65.9,227.3,70.6,217z M102.2,218.6c-4,6-6.1,13-6.5,21h49.6c-0.4-8-2.5-14.9-6.4-21
			c-3.9-6-10.1-9-18.6-9C112.2,209.6,106.1,212.6,102.2,218.6z"/>
		<path d="M170.8,187h34l25.7,90l26-90h34l-42.7,128.2h-34.2L170.8,187z"/>
		<path d="M292.7,217c4.7-10.3,11.4-18.4,20-24.3c8.7-5.9,18.8-8.9,30.3-8.9c17.3,0,30.9,6.3,40.6,19c9.7,12.7,14.6,29.2,14.6,49.5
			v9h-80.4c0.7,9.2,3.7,16.7,9,22.6c5.3,5.8,12.6,8.8,22,8.8c5,0,10-1.1,15-3.3c5-2.2,9.3-5.3,12.9-9.2l14.6,19.1
			c-5.7,6.2-12.5,10.9-20.6,14.2c-8.1,3.3-16.5,4.9-25.3,4.9c-11.9,0-22.3-2.8-31.3-8.4c-9-5.6-16-13.5-21-23.8
			c-5-10.3-7.4-22-7.4-35.3C285.7,238.6,288,227.3,292.7,217z M324.3,218.6c-4,6-6.1,13-6.5,21h49.6c-0.4-8-2.5-14.9-6.4-21
			c-3.9-6-10.1-9-18.6-9C334.3,209.6,328.3,212.6,324.3,218.6z"/>
		<path d="M479.7,230.8c0-12.6-5.6-18.8-16.7-18.8c-5,0-9.4,1.6-13.4,4.6c-4,3.1-7.3,6.9-10,11.3v87.3h-31.8V187h31.8v16.7
			c3.7-5.5,9-10.2,15.8-14.1c6.8-3.9,14.1-5.8,21.9-5.8c11.5,0,20.1,3.1,25.7,9.3c5.7,6.2,8.5,14.8,8.5,25.7v96.3h-31.8V230.8z"/>
		<path d="M542.3,309.9c-5.3-5.7-8-14.2-8-25.5v-69.5h-16.7V187h16.7v-35h31.8v35h21.2v27.9h-21.2V277c0,4.2,0.8,7.5,2.4,9.8
			c1.6,2.3,3.9,3.5,6.9,3.5c1.9,0,3.8-0.4,5.6-1.1c1.8-0.7,3.1-1.6,4-2.7l6.6,24.4c-5.5,5-13.7,7.4-24.7,7.4
			C555.8,318.4,547.6,315.6,542.3,309.9z"/>
		<path d="M600.8,162.6c-3.8-3.7-5.7-8.2-5.7-13.5c0-5.3,1.9-9.9,5.7-13.7c3.8-3.8,8.3-5.7,13.4-5.7c5.3,0,9.8,1.9,13.5,5.7
			c3.7,3.8,5.6,8.4,5.6,13.7c0,5.3-1.9,9.8-5.6,13.5c-3.7,3.7-8.2,5.6-13.5,5.6C609.1,168.2,604.6,166.3,600.8,162.6z M598.3,187
			h31.8v128.2h-31.8V187z"/>
		<path d="M783,229c0-11.3-4.9-17-14.6-17c-4.6,0-8.8,1.6-12.7,4.8c-3.9,3.2-7,6.9-9.3,11.1v87.3h-31.8V229c0-11.3-4.9-17-14.6-17
			c-4.4,0-8.6,1.6-12.6,4.8c-4,3.2-7.1,6.9-9.4,11.1v87.3h-31.8V187h31.8v16.7c2.8-5,7.7-9.5,14.5-13.7c6.8-4.2,14-6.2,21.6-6.2
			c8.1,0,14.9,1.9,20.3,5.7c5.4,3.8,9,9.3,10.7,16.6c3.2-6,8.3-11.2,15.4-15.7c7.1-4.4,14.4-6.6,22-6.6c10.3,0,18.2,2.8,23.9,8.4
			c5.7,5.6,8.5,14.1,8.5,25.6v97.4H783V229z"/>
	</g>
	<g id="_x33_5_x2C_11_6_">
		<path d="M847.3,152.1L847.3,152.1c14.8,14.9,15.3,38.1,15.3,54.2h3.7c0-16.1,0.5-39.3,15.3-54.2l0,0
			c14.9-14.8,38.1-15.3,54.2-15.3v-3.7c-16.1,0-39.3-0.5-54.2-15.3l0,0c-14.8-14.9-15.3-38.1-15.3-54.2h-3.7
			c0,16.1-0.5,39.3-15.3,54.2l0,0c-14.9,14.8-38.1,15.3-54.2,15.3v3.7C809.2,136.9,832.5,137.3,847.3,152.1z"/>
	</g>
</g>
</svg>
