<svg xmlns="http://www.w3.org/2000/svg" viewBox="0 0 6311.5 5210.5">
  <defs>
    <style>
      .st0 {
        fill: #fff;
      }
    </style>
  </defs>
  <polygon class="st0" points="110.4 134.7 4851.5 107.6 4865.3 703.9 5552.4 744.6 5593.6 1408.7 6294.5 1422.3 6308.2 5122.2 1690.8 5122.2 1663.3 4403.9 880 4403.9 852.5 3712.7 .2 3730.9 110.4 134.7"/>
  <path d="M3283.9,1.8l1409.7-.5c129.3,0,180.1-23.7,181.1,138.7l.6,496.3h441.7c248.3.2,258.1-53.4,258.7,214.5l.6,322c.1,58.1-3.3,118.6,1.9,176.4l588.3.8c65.8.2,134.3,2.6,140.8,88.8,8.3,109.4,1.3,224.5,1.2,334.4l-1.1,2268.1c-3.7,142.6-164.6,125.5-169.4,22.3l-.8-2387.8c0-49.4,2.8-101.1-1.7-150.3l-558.2.4-1.1,2822.6c1.8,121,17.3,182.5-119.4,182.6l-521.4-1-2865.5-7.7h-343.2s3.2,514,3.2,514l1022.1,2.6h719.5s2665-2.1,2665-2.1l.9-596.3c.2-179.5,139.3-150.3,165.2-58.6l2.3,8.1c6.4,24.4,3.1,59.4,3.2,85l-1.5,659.3c-5.1,88.5-106.7,76.9-170.1,73.9l-2435.5-3h-935.4c0,0-1032,0-1032,0-157.2,0-178.4,15.2-178.1-170.7l.7-193.1,2.4-315-640.2,4.8c-169.2,2.2-117.7-110.8-117.7-252.8l1.3-453.5-514.1,1.2c-128.8.3-280.7,55.2-287.9-95.4L0,167.4C1.2,111.5-6,19.2,68.6,14.5c81.6-5.2,166.6-.5,248.4-.5l510.1-.3c57.5-.1,113.6-10.5,170.3-10.9l1065.3-.9h1221.2ZM3458.3,179.4l-1278.8.3-2004.9,1.6-.9,3345.6c0,39.6-2.8,81.7,1.4,121l1535.9,4.5-4,6.9c-22.1,3.8-42.1,8.6-63.6,15.1-5.9,18,3.2,102.3,13.8,116l4.1,5.6c25.5,27.2,97.9,19.1,135.3,20.9l347.4.8c40.4.1,97.4-6.8,136,7.6l-1298.8,1.2c-6.7,53-1,113.7-.9,167.4v366.4c.1,0,780.8-.2,780.8-.2h135.1c0,.1,2804.2-.3,2804.2-.3h453.6c81.7.1,168.9,5.7,249.8-4.2l-1.4-3538.4-523.8,2-11.4,40.2c-18.8,67.9-98.1,78.4-144.8,32.9-37.2-36.2-24.7-289.7-24.8-342.3l-1.1-371.9-1238.4,1Z"/>
  <path d="M3012.4,653.5l249.2-2.4c52.7,0,114.7-15.5,140.1,45.4,27.1,64.8,3.9,116-61.7,137.2l-300-3.4c-123.1,1.9-143.3-146.9-27.7-176.8Z"/>
  <path d="M4129.7,647.5c47.3-21,163-19,174.9,65.3,8.7,61.9,3,131.1,3.2,193.7.1,72.4,15.7,221.1-108.5,189.3-67.3-17.3-69.6-74.1-68.4-129.5l-1.4-97.3c-.5-12.7,1.1-28.5-5.8-39.5l-28.4-1.3-252.5-.4c-43.8,0-91.6,3.5-134.8-3-78.4-11.7-100.6-147.6-21.9-170.1,62.1-17.8,353.8-1,443.6-7.3Z"/>
  <path d="M4191.8,1877.7c18.4-1.4,40.6-3.3,58.4,2.3l4.3,1.5c66,22.4,53.7,83.9,53.7,139.3l-1.6,799.9c-1.8,42.5-25.5,56.2-65.4,66.4-56.7,2.6-107.1-29.5-109.4-88.9v-769.9c-1-72.8-12-112.3,60.1-150.6Z"/>
  <path d="M4122,3647.3l576.3-.8-.8-2253.2c0-25.6-2.4-53,.2-78.4,8.3-80.3,171.5-84.2,177.8,12.6,3.1,48.1.4,98,.3,146.2l-.4,2129.4c0,67.7,25.2,211.8-69.2,221.2-74.3,7.4-154.1,1.5-229.1,1.5h-440.6c0,0-1856.3-.4-1856.3-.4-38.6-14.4-95.6-7.5-136-7.6l-347.4-.8c-37.4-1.8-109.8,6.2-135.3-20.9l-4.1-5.6c-10.6-13.7-19.7-98-13.8-116,21.4-6.6,41.5-11.3,63.6-15.1l4-6.9,2411-5.1Z"/>
</svg>
