<?xml version="1.0" encoding="UTF-8"?>
<svg id="Ebene_1" xmlns="http://www.w3.org/2000/svg" version="1.1" viewBox="0 0 48.19 48.19">
  <!-- Generator: Adobe Illustrator 30.0.0, SVG Export Plug-In . SVG Version: 2.1.1 Build 123)  -->
  <defs>
    <style>
      .st0 {
        fill: #181716;
      }
    </style>
  </defs>
  <polygon class="st0" points="4.33 14.51 2.47 16.36 2.47 25.79 4.67 27.61 7.67 27.61 9.66 25.79 9.66 22.02 6.44 22.02 6.44 25.13 5.78 25.13 5.78 17 6.44 17 6.44 19.59 9.66 19.59 9.66 16.36 7.8 14.51 4.33 14.51"/>
  <rect class="st0" x="10.83" y="14.51" width="3.3" height="13.1"/>
  <path class="st0" d="M20.52,14.51l1.88,1.85v3.51l-1.39,1.22,1.39,1.26v5.26h-3.12v-5.26h-.65v5.26h-3.21v-13.1h5.11ZM18.63,19.87h.65v-2.87h-.65v2.87Z"/>
  <polygon class="st0" points="28.89 14.51 30.75 16.36 30.75 19.59 27.53 19.59 27.53 17 26.86 17 26.86 25.13 27.53 25.13 27.53 22.02 30.75 22.02 30.75 25.79 28.76 27.61 25.76 27.61 23.56 25.79 23.56 16.36 25.42 14.51 28.89 14.51"/>
  <polygon class="st0" points="39.04 14.51 39.04 25.79 37.14 27.61 33.72 27.61 31.82 25.79 31.82 14.51 35.12 14.51 35.12 25.13 35.74 25.13 35.74 14.51 39.04 14.51"/>
  <polygon class="st0" points="42 14.51 40.2 16.36 40.2 20.43 42.23 22.26 44.06 22.26 44.06 25.13 43.41 25.13 43.41 23.36 40.1 23.36 40.1 25.79 42 27.61 45.48 27.61 47.36 25.79 47.36 21.66 45.34 19.81 43.41 19.81 43.41 17 44.06 17 44.06 18.77 47.18 18.77 47.18 16.36 45.34 14.51 42 14.51"/>
  <polygon class="st0" points="14.17 .39 13.18 6.89 12.98 6.89 11.99 .39 8.45 .39 8.45 13.49 11.46 13.49 11.34 6.75 11.48 6.75 12.51 13.49 13.65 13.49 14.67 6.75 14.82 6.75 14.69 13.49 17.71 13.49 17.71 .39 14.17 .39"/>
  <polygon class="st0" points="22.85 .39 22.85 11.01 22.24 11.01 22.24 .39 18.94 .39 18.94 11.66 20.83 13.49 24.26 13.49 26.16 11.66 26.16 .39 22.85 .39"/>
  <rect class="st0" x="35.65" y=".39" width="3.3" height="13.1"/>
  <polygon class="st0" points="42.04 .39 40.18 2.24 40.18 11.66 42.38 13.49 45.37 13.49 47.36 11.66 47.36 7.9 44.15 7.9 44.15 11.01 43.48 11.01 43.48 2.88 44.15 2.88 44.15 5.47 47.36 5.47 47.36 2.24 45.5 .39 42.04 .39"/>
  <polygon class="st0" points="29.12 .39 27.31 2.24 27.31 6.31 29.35 8.14 31.18 8.14 31.18 11.01 30.52 11.01 30.52 9.23 27.22 9.23 27.22 11.66 29.12 13.49 32.6 13.49 34.48 11.66 34.48 7.53 32.46 5.69 30.52 5.69 30.52 2.88 31.18 2.88 31.18 4.65 34.3 4.65 34.3 2.24 32.46 .39 29.12 .39"/>
  <path class="st0" d="M9.76,28.43l-1.32,1.31v6.67l1.56,1.29h2.12l1.41-1.29v-2.66h-2.27v2.2h-.47v-5.75h.47v1.84h2.27v-2.29l-1.32-1.31h-2.45ZM16.76,30.19h.46v5.75h-.46v-5.75ZM15.78,28.43l-1.35,1.31v6.67l1.35,1.29h2.45l1.33-1.29v-6.67l-1.43-1.31h-2.35ZM23.44,28.43v3.96h-.09l-1.14-3.96h-1.65v9.27h2.13v-3.74h.08l1.03,3.74h1.76v-9.27h-2.13ZM27.89,28.43l-1.32,1.31v6.67l1.56,1.29h2.12l1.41-1.29v-2.66h-2.27v2.2h-.47v-5.75h.47v1.84h2.27v-2.29l-1.32-1.31h-2.45ZM32.6,28.43v9.27h3.92v-1.76h-1.65v-2.26h1.3v-1.76h-1.3v-1.73h1.56v-1.76h-3.83ZM39.62,30.19h.46v2.03h-.46v-2.03ZM37.34,28.43v9.27h2.27v-3.72h.46v3.72h2.21v-3.72l-.98-.89.98-.87v-2.48l-1.33-1.31h-3.61ZM42.84,28.43v1.76h1.12v7.51h2.34v-7.51h1.06v-1.76h-4.52Z"/>
  <path class="st0" d="M26.58,43.98h.46v2.06h-.46v-2.06ZM26.58,40.28h.45v1.94h-.45v-1.94ZM24.24,38.52v9.27h3.78l1.35-1.29v-2.52l-1.18-.92.96-.94v-2.41l-1.14-1.19h-3.78ZM38.61,40.28h.46v2.03h-.46v-2.03ZM36.34,38.52v9.27h2.27v-3.73h.46v3.73h2.21v-3.73l-.98-.89.98-.87v-2.48l-1.33-1.31h-3.61ZM44.56,40.28h.46v5.75h-.46v-5.75ZM43.58,38.52l-1.35,1.31v6.67l1.35,1.29h2.45l1.33-1.29v-6.67l-1.43-1.31h-2.35Z"/>
  <path class="st0" d="M30.28,41.79h2.34v-1.41h-2.34v1.41ZM30.28,39.93h2.34v-1.41h-2.34v1.41ZM33.05,38.52v7.51h-.43v-3.79h-2.34v4.26l1.34,1.29h2.43l1.34-1.29v-7.98h-2.34Z"/>
</svg>