<?xml version="1.0" encoding="UTF-8"?>
<svg id="bg_Orange" xmlns="http://www.w3.org/2000/svg" version="1.1" viewBox="0 0 392.6 188.1">
  <!-- Generator: Adobe Illustrator 30.0.0, SVG Export Plug-In . SVG Version: 2.1.1 Build 123)  -->
  <path d="M277,134.6c-1.5-1.1-3.7-.8-4.8.8-1.1,1.5-.8,3.6.8,4.8s3.6.8,4.8-.8c1.1-1.5.8-3.6-.8-4.8ZM282.4,127.1c-1.5-1.1-3.6-.8-4.7.8-1.1,1.5-.8,3.6.8,4.8,1.5,1.1,3.6.8,4.7-.8,1.1-1.5.8-3.6-.8-4.8ZM287.8,119.7c-1.5-1.1-3.6-.8-4.8.8-1.1,1.5-.8,3.6.8,4.8,1.5,1.1,3.6.8,4.8-.8,1.1-1.5.8-3.6-.8-4.8ZM314.5,83.3c1.5,1.1,3.6.8,4.8-.8,1.1-1.5.8-3.6-.8-4.8-1.5-1.1-3.6-.8-4.8.8-1.1,1.5-.8,3.6.8,4.8ZM319.8,75.9c1.5,1.1,3.6.8,4.8-.8,1.1-1.5.8-3.6-.8-4.8-1.5-1.1-3.6-.8-4.8.8-1.1,1.5-.8,3.6.8,4.8ZM325.2,68.5c1.5,1.1,3.6.8,4.8-.8,1.1-1.5.8-3.6-.8-4.8-1.5-1.1-3.7-.8-4.8.8-1.1,1.5-.8,3.6.8,4.8ZM340,48.2c-1.5-1.1-3.6-.8-4.8.8-1.1,1.5-.8,3.6.8,4.8s3.6.8,4.8-.8c1.1-1.5.8-3.6-.8-4.8ZM334.6,55.6c-1.5-1.1-3.6-.8-4.7.8-1.1,1.5-.8,3.6.8,4.8s3.6.8,4.7-.8c1.1-1.5.8-3.6-.8-4.8ZM293.1,112.3c-1.5-1.1-3.6-.8-4.8.8-1.1,1.5-.8,3.6.8,4.8,1.5,1.1,3.6.8,4.8-.8,1.1-1.5.8-3.6-.8-4.8ZM303.9,97.5c-1.5-1.1-3.6-.8-4.8.8-1.1,1.5-.8,3.6.8,4.8,1.5,1.1,3.6.8,4.8-.8,1.1-1.5.8-3.6-.8-4.8ZM298.5,104.9c-1.5-1.1-3.6-.8-4.8.8-1.1,1.5-.8,3.6.8,4.8,1.5,1.1,3.6.8,4.8-.8,1.1-1.5.8-3.6-.8-4.8ZM284.2,47.5h-14.2v10.8h14.2v-10.8ZM257.2,63.3l-9.1,29.6h-.2l-9.1-29.6h-8.1c-8.2,0-10.7,4.3-11.9,6.6h-.2v-6.6h-13.3v13.8c-3.7-9.1-12.3-15.4-23-15.4s-24.9,12.2-24.9,25.5,0,.7,0,1.1c-3.1-3.9-8.7-5.4-14-6.9-3.8-1.1-7.3-2.6-7.3-5.1s1-3.2,4-3.2,4.4,2.6,4.5,3.6h13.9c-1.2-12.5-12-15-18.2-15-9.3,0-17.5,5.6-18.3,14.3-4-8.5-12.3-14.3-22.5-14.3s-12.2,2.5-16.5,6.4v-4.8h-6.1c-8.2,0-10.7,4.4-11.9,6.7h-.2v-6.7h-13.3v47.5h14.2v-24.5c0-7,4.4-8.5,10.8-8.7-1.2,3-1.9,6.3-1.9,9.6,0,14.1,11.5,25.1,25.1,25.1s9.6-1.5,13.5-4.3c3.3-2.3,6.2-5.5,8.4-9.6,2.1,11,12.2,13.9,19.1,13.9,9.9,0,18.2-5.4,19.2-14.3,4.1,8.5,12.8,14.2,22.7,14.2s9.6-1.5,13.5-4.3c3.8-2.6,7-6.4,9.3-11.3v14h14.2v-24.5c0-6.6,3.9-8.3,9.7-8.7l11.9,33.2h13.6l15.1-42v42h14.2v-43.3l31.2,43.3h17.4l-34.6-47.5h-41ZM99.7,73.7c7.3,0,10.2,5.3,10.8,8.1h-21.5c.6-2.8,3.4-8.1,10.8-8.1ZM141,101.1c-.6,0-4.8,0-5.4-4.4h-12.9s0,0,0,0h-14.8c-1.8,2.1-4.1,3.7-7.9,3.7-5.6,0-10.3-3.3-11.1-9h35.6c.2-1.1.3-1.9.3-3.8s0-2.3-.2-3.5c2.1,2.6,5.3,4.4,8.9,5.6,9.1,3.5,12.6,3.9,12.6,7.6s-2.6,3.7-5,3.7ZM182.5,73.7c7.4,0,10.2,5.3,10.8,8.1h-21.6c.6-2.8,3.4-8.1,10.8-8.1ZM205.4,96.6h-14.7c-1.9,2.1-4.1,3.8-8.1,3.8s-10.3-3.3-11.1-9h33.9v5.2Z"/>
  <g>
    <path d="M64.1,140.7h-3.4v-1.3h0c-.3.5-1.2,1.7-3.5,1.7-3.6,0-5.9-2.8-5.9-6.3s2.9-6.3,5.9-6.3,3.1,1,3.5,1.4v-4.9h3.5v15.8ZM57.7,137.8c2.2,0,3-1.8,3-3s-1-3-3-3-3,1.6-3,3,1.3,3,3,3Z"/>
    <path d="M77.1,137c-.6,1.3-1.4,2.3-2.4,3-1,.7-2.1,1.1-3.4,1.1-3.4,0-6.3-2.7-6.3-6.3s2.6-6.3,6.2-6.3,6.2,2.9,6.2,6.4,0,.7,0,.9h-8.9c.2,1.4,1.4,2.2,2.8,2.2s1.7-.5,2.2-1.1h3.6ZM74,133.5c-.1-.7-.9-2-2.7-2s-2.5,1.3-2.7,2h5.4Z"/>
    <path d="M82.3,127.6h-3.5v-2.7h3.5v2.7ZM82.3,140.7h-3.5v-11.8h3.5v11.8Z"/>
    <path d="M83.8,128.9h3.3v1.3h0c.4-.6,1.1-1.7,3.2-1.7s2.4.5,3,1c.6.6,1.4,1.5,1.4,3.8v7.4h-3.5v-6.4c0-.8,0-2.4-1.9-2.4s-2,1.7-2,2.5v6.4h-3.5v-11.8Z"/>
    <path d="M106.8,128.9h1.7v2.7h-1.7v9.1h-3.5v-9.1h-1.7v-2.7h1.7v-3.9h3.5v3.9Z"/>
    <path d="M113.4,127.6h-3.5v-2.7h3.5v2.7ZM113.4,140.7h-3.5v-11.8h3.5v11.8Z"/>
    <path d="M126.8,136.2c-.6,2.7-3,4.9-6.2,4.9s-6.3-2.8-6.3-6.3,2.7-6.3,6.2-6.3,5.7,2.1,6.3,5h-3.6c-.4-.8-1.1-1.7-2.6-1.7-1.7,0-2.8,1.3-2.8,3s1.1,3,2.8,3,2.2-.9,2.6-1.6h3.6Z"/>
    <path d="M128,124.9h3.5v8.2h0l3.3-4.3h4.2l-4.4,5.2,4.3,6.6h-4l-3.3-5.7h0v5.7h-3.5v-15.8Z"/>
    <path d="M150.6,137c-.6,1.3-1.4,2.3-2.4,3-1,.7-2.2,1.1-3.4,1.1-3.4,0-6.3-2.7-6.3-6.3s2.6-6.3,6.2-6.3,6.2,2.9,6.2,6.4,0,.7,0,.9h-8.9c.2,1.4,1.4,2.2,2.8,2.2s1.7-.5,2.2-1.1h3.6ZM147.4,133.5c-.2-.7-.9-2-2.7-2s-2.5,1.3-2.7,2h5.4Z"/>
    <path d="M156.7,128.9h1.7v2.7h-1.7v9.1h-3.5v-9.1h-1.7v-2.7h1.7v-3.9h3.5v3.9Z"/>
    <path d="M160,128.9h3.3v1.3h0c.7-.9,1.9-1.7,3.7-1.7,4.2,0,5.8,3.7,5.8,6.4s-2.4,6.2-5.7,6.2-3.1-1-3.6-1.5v5h-3.5v-15.8ZM169.3,134.8c0-1.4-1-3-3-3s-3,1.6-3,3,1.1,3,3,3,3-1.5,3-3Z"/>
    <path d="M179.8,128.5c4.3,0,6.4,3.4,6.4,6.3s-2.1,6.3-6.4,6.3-6.4-3.4-6.4-6.3,2.1-6.3,6.4-6.3ZM179.8,137.7c1.5,0,2.8-1.3,2.8-3s-1.3-3-2.8-3-2.8,1.3-2.8,3,1.3,3,2.8,3Z"/>
    <path d="M187.2,128.9h3.3v1.3h0c.3-.6.9-1.7,3-1.7v3.6c-1.6,0-2.8.4-2.8,2.2v6.5h-3.5v-11.8Z"/>
    <path d="M199.6,128.9h1.7v2.7h-1.7v9.1h-3.5v-9.1h-1.7v-2.7h1.7v-3.9h3.5v3.9Z"/>
    <path d="M214.4,140.7h-3.5v-1.3h0c-.6,1.1-2.1,1.7-3.4,1.7-3.7,0-5.9-2.9-5.9-6.3s2.8-6.3,5.9-6.3,3,.9,3.4,1.7h0v-1.3h3.5v11.8ZM207.9,137.8c2.2,0,3-1.9,3-3s-1-3-3-3-2.9,1.7-2.9,3,.8,3,2.9,3Z"/>
    <path d="M216.2,124.9h3.5v15.8h-3.5v-15.8Z"/>
  </g>
</svg>