<?xml version="1.0" encoding="UTF-8"?>
<svg id="Logo_-_Artists" data-name="Logo - Artists" xmlns="http://www.w3.org/2000/svg" viewBox="0 0 1042.58 494.08">
  <defs>
    <style>
      .cls-1 {
        fill: #000;
        stroke-width: 0px;
      }
    </style>
  </defs>
  <path class="cls-1" d="M781.54,192.89h-4.89v62.13h4.89v-62.13ZM261.84,214.8c0-30.16-21.34-50.1-55.43-50.1h-73.75v164.69h23.19v-145.67h47.08c22.5,0,35.25,12.06,35.25,31.08s-12.76,31.32-35.25,31.32h-29.64l63.4,83.27h28.62l-52.18-65.18c30.38-2.55,48.71-21.57,48.71-49.41M417.26,173.28v-8.58h-54.11v8.12l4.98.46c8.91.7,12.31,3.94,12.31,11.13v81.42c0,30.15-19.02,44.3-44.06,44.3s-44.06-14.15-44.06-44.3v-81.42c0-7.19,3.68-11.6,13.62-11.6h41.66v-8.12h-90.79v8.58c8.91.7,12.32,3.94,12.32,11.13v81.65c0,41.75,28.76,63.32,67.25,63.32s67.25-21.57,67.25-63.32v-81.65c0-7.19,3.67-10.21,13.62-11.13M434.38,207.41c0-16.23,13.45-25.97,36.63-25.97,25.5,0,38.95,11.83,39.88,32.7h23.18c-1.39-32-24.11-51.71-62.6-51.71s-59.81,19.02-59.81,47.54c0,67.94,104.33,28.99,104.33,73.51,0,16.46-13.21,26.67-37.56,26.67-28.75,0-46.14-14.15-47.76-38.26h-22.49c1.16,35.71,27.82,57.51,68.62,57.51s61.2-19.01,61.2-48.93c0-65.16-103.63-25.04-103.63-73.05M568.18,207.41c0-16.23,13.45-25.97,36.63-25.97,25.5,0,38.95,11.83,39.88,32.7h23.18c-1.39-32-24.11-51.71-62.6-51.71s-59.81,19.02-59.81,47.54c0,67.94,104.33,28.99,104.33,73.51,0,16.46-13.21,26.67-37.56,26.67-28.75,0-46.14-14.15-47.76-38.26h-22.49c1.16,35.71,27.82,57.51,68.63,57.51s61.2-19.01,61.2-48.93c0-65.16-103.63-25.04-103.63-73.05M714.33,255.01h55.62v-4.21h-50.47v-82.43h-5.15v86.64ZM783.47,173.58c0-2.35-1.8-4.08-4.38-4.08s-4.12,1.73-4.12,4.08c0,2.48,1.67,4.09,4.12,4.09,2.57,0,4.38-1.61,4.38-4.09M824.07,255.01l28.07-62.13h-5.02l-25.75,57.55-25.88-57.55h-5.28l28.2,62.13h5.66ZM905.02,220.61h-49.19c1.16-15.59,11.08-25.12,24.98-25.12s23.3,9.28,24.21,25.12M909.92,224.32c.26-19.8-10.56-32.68-29.1-32.68s-30.13,13.62-30.13,32.3c0,19.68,11.98,32.3,30.52,32.3,14.55,0,25.24-7.67,28.2-20.92h-4.89c-2.45,11.02-11.33,17.08-23.18,17.08-15.71,0-25.5-10.65-25.62-28.09h54.21Z"/>
</svg>