<?xml version="1.0" encoding="UTF-8"?>
<svg id="Logo_-_Klassik" data-name="Logo - Klassik" xmlns="http://www.w3.org/2000/svg" viewBox="126 160 932 174">
  <defs>
    <style>
      .cls-1 {
        stroke-width: 0px;
      }
    </style>
  </defs>
  <path class="cls-1" d="M988.65,192.32h-4.88v62.13h4.88v-62.13ZM261.84,214.8c0-30.16-21.34-50.1-55.43-50.1h-73.75v164.69h23.19v-145.67h47.08c22.5,0,35.25,12.06,35.25,31.08s-12.76,31.31-35.25,31.31h-29.64l63.4,83.27h28.62l-52.18-65.18c30.38-2.55,48.71-21.57,48.71-49.41M417.26,173.28v-8.58h-54.11v8.12l4.98.46c8.91.7,12.31,3.94,12.31,11.13v81.42c0,30.15-19.02,44.3-44.06,44.3s-44.06-14.15-44.06-44.3v-81.42c0-7.19,3.68-11.6,13.62-11.6h41.66v-8.12h-90.79v8.58c8.91.7,12.32,3.94,12.32,11.13v81.65c0,41.75,28.76,63.32,67.25,63.32s67.25-21.57,67.25-63.32v-81.65c0-7.19,3.67-10.21,13.62-11.13M434.38,207.41c0-16.23,13.45-25.97,36.63-25.97,25.5,0,38.95,11.83,39.88,32.7h23.18c-1.39-32-24.11-51.71-62.6-51.71s-59.81,19.02-59.81,47.54c0,67.94,104.33,28.99,104.33,73.51,0,16.46-13.22,26.67-37.56,26.67-28.75,0-46.14-14.15-47.76-38.26h-22.49c1.16,35.71,27.82,57.51,68.62,57.51s61.2-19.01,61.2-48.93c0-65.16-103.63-25.04-103.63-73.04M568.18,207.41c0-16.23,13.45-25.97,36.63-25.97,25.5,0,38.95,11.83,39.88,32.7h23.18c-1.39-32-24.11-51.71-62.6-51.71s-59.81,19.02-59.81,47.54c0,67.94,104.33,28.99,104.33,73.51,0,16.46-13.21,26.67-37.56,26.67-28.75,0-46.14-14.15-47.76-38.26h-22.49c1.16,35.71,27.82,57.51,68.62,57.51s61.2-19.01,61.2-48.93c0-65.16-103.63-25.04-103.63-73.04M784.91,254.45l-41.11-48.89,38.67-37.75h-6.17l-56.27,54.95v-54.95h-5.14v86.64h5.14v-25.62l20.43-19.93,38.28,45.54h6.17ZM789.53,254.45h4.88v-86.64h-4.88v86.64ZM852.99,230.19c0,12.87-10.41,21.9-25.82,21.9-10.02,0-16.83-5.44-16.83-13,0-10.03,8.22-15.1,26.59-15.1h16.06v6.19ZM852.99,254.45h4.75v-41.96c0-13.24-9.51-21.41-23.89-21.41s-24.92,6.93-26.21,20.05h4.88c1.16-10.77,9.38-15.97,21.33-15.97,11.3,0,19.14,6.31,19.14,17.2v8.05h-15.54c-22.74,0-32.12,6.93-32.12,19.18,0,9.41,8.61,16.09,20.94,16.09s22.61-5.45,26.72-14.6v13.36ZM873.29,208.16c0-10.27,9.5-13.24,18.11-13.24,11.56,0,19.01,4.95,20.42,15.72h4.62c-1.29-13.12-10.02-19.55-25.05-19.55-11.31,0-22.74,4.33-22.74,17.45,0,25.5,44.58,8.42,44.58,29.33,0,10.02-7.71,13.99-18.37,13.99-12.72,0-22.1-5.57-23.25-18.19h-4.75c1.29,14.23,11.69,22.03,27.75,22.03,13.75,0,23.38-5.82,23.38-18.19,0-25.25-44.7-8.17-44.7-29.33M928.91,208.16c0-10.27,9.51-13.24,18.11-13.24,11.56,0,19.01,4.95,20.42,15.72h4.62c-1.28-13.12-10.02-19.55-25.05-19.55-11.3,0-22.74,4.33-22.74,17.45,0,25.5,44.58,8.42,44.58,29.33,0,10.02-7.71,13.99-18.37,13.99-12.72,0-22.1-5.57-23.25-18.19h-4.75c1.29,14.23,11.69,22.03,27.75,22.03,13.75,0,23.38-5.82,23.38-18.19,0-25.25-44.7-8.17-44.7-29.33M990.58,173.01c0-2.35-1.8-4.08-4.37-4.08s-4.11,1.73-4.11,4.08c0,2.47,1.67,4.08,4.11,4.08,2.57,0,4.37-1.61,4.37-4.08M1029.24,215.21l25.05-22.9h-6.3l-38.92,35.27v-59.78h-4.88v86.64h4.88v-20.92l16.57-15.1,26.21,36.01h6.04l-28.65-39.23Z"/>
</svg>
